<svg width="85" height="21" viewBox="0 0 85 21" fill="none" xmlns="http://www.w3.org/2000/svg">
<path d="M38.6431 10.1573C41.3295 9.27056 41.817 7.02924 41.8105 5.20268C41.8053 2.41422 39.8249 0.00179789 33.9621 0.00179789L23.0199 0V20.9568H33.934C39.8315 20.9568 42.0016 17.9471 42.0016 14.9324C42.0016 11.2819 38.6431 10.1573 38.6431 10.1573ZM28.2128 4.55929H35.5798L35.6065 4.56468C36.4381 4.71111 37.0435 5.41398 37.0435 6.2386C37.0435 7.08235 36.3948 7.87657 35.5376 7.99293L28.2178 8.00388L28.2128 4.55929ZM35.2254 16.0728H28.2128V12.5641H35.3972L35.4141 12.5659C36.3079 12.6684 36.9849 13.4069 36.9849 14.2846C36.9849 15.241 36.1836 16.0581 35.2254 16.0728Z" fill="#5C6066"/>
<path d="M66.5045 0.00266716H84.9956L84.9854 4.57666H71.6422L71.655 7.95458H83.6843V12.5521H71.655V16.2073H85L84.9974 21H66.5045V0.00266716Z" fill="#5C6066"/>
<path d="M55.7478 0.0301014H44.5657V20.9936H49.7006V12.5119C49.7006 12.5119 55.3547 12.5055 55.3557 12.5055C56.9752 12.5302 58.2347 13.849 58.2347 15.4752V20.9753L63.2609 20.9735L63.2508 14.2075C63.2508 11.0733 60.2049 10.1472 60.2049 10.1472C60.2049 10.1472 63.319 9.22091 63.319 5.5155C63.319 0.981868 59.3995 0.0301014 55.7478 0.0301014ZM58.5506 6.5341C58.4584 7.22325 57.7652 7.9709 56.8997 7.9709L49.683 7.97368V4.61685H56.9033C57.7652 4.61685 58.4411 5.2483 58.5506 6.07669V6.5341Z" fill="#5C6066"/>
<path d="M19.6896 15.9282C19.6157 15.9301 12.6706 16.0636 10.273 15.8311C6.41091 15.4551 5.0433 12.6117 5.0433 10.2908C5.0433 7.39708 7.0278 5.26754 10.1022 4.86765C11.5647 4.67726 19.5627 4.76698 19.6472 4.7678L19.8154 4.76976L19.8324 0.00259884L19.6625 0.00357883L10.6104 0.020084C9.60272 0.081367 7.93192 0.182035 6.22101 0.877555C4.57751 1.62602 3.14709 2.77569 2.07904 4.20612C0.719648 6.02712 0 8.18788 0 10.4545C0 11.1675 0.0567228 11.875 0.172636 12.554C0.824052 15.7324 2.92019 18.3625 5.92588 19.7774C6.94082 20.2212 8.50606 20.7538 11.6628 20.9295C11.6693 20.9295 13.3634 20.9651 13.3634 20.9651L19.674 20.9715H19.8407L19.8585 15.9262L19.6896 15.9282Z" fill="#5C6066"/>
</svg>
